<svg
   width="512"
   height="512"
   viewBox="0 0 512 512"
   version="1.1"
   xmlns="http://www.w3.org/2000/svg">
  <defs>
    <style>
      @media (prefers-color-scheme: dark) {
        #path9    { fill: #7aa8d4; }
        #path11   { fill: #c8d8f0; }
        #path12   { fill: #a0c0e8; }
        #path13   { fill: #2fbccd; }
        #path14   { fill: #2fbccd; }
        #circle15 { fill: #a0c0e8; }
      }
      @media (prefers-color-scheme: light) {
        #path9    { fill: #3a5b87; }
        #path11   { fill: #1b244c; }
        #path12   { fill: #203c6e; }
        #path13   { fill: #2fbccd; }
        #path14   { fill: #2fbccd; }
        #circle15 { fill: #203c6e; }
      }
    </style>
  </defs>
  <g id="layer1">
    <g id="g1" transform="translate(11.425697,-10.757761)">
      <path
         id="path9"
         style="fill:#7aa8d4;stroke:none;stroke-width:3.53567;stroke-linejoin:round"
         d="M 391.43993,147.40351 C 373.67244,79.115546 331.74534,35.536231 260.74022,21.695833 l -5.89961,58.542571 c 38.63783,9.193068 67.07908,34.409316 80.32584,83.502596 z" />
      <path
         id="path11"
         style="fill:#c8d8f0;stroke:none;stroke-width:3.53567;stroke-linejoin:round"
         d="M 224.43475,22.149629 C 165.6235,38.924016 113.29593,64.985861 98.72703,145.13442 c -4.607676,39.33175 3.72884,77.32262 55.81966,123.8924 31.04275,18.10941 68.20045,28.06338 99.13503,29.29279 l -1.3428,-60.64976 c -45.18011,-1.8599 -76.64659,-17.02284 -89.16962,-50.33033 -10.12118,-31.09664 -2.54433,-51.13206 6.35349,-70.34185 16.91425,-22.720853 38.33586,-31.01831 61.26546,-34.490152 z" />
      <path
         id="path12"
         style="fill:#a0c0e8;stroke:none;stroke-width:3.53567;stroke-linejoin:round"
         d="m 252.19554,238.1445 1.41098,60.13409 c 27.11162,2.40324 52.39113,13.46368 68.39921,40.63625 14.13419,26.15324 11.11834,50.37016 2.26912,73.9725 -13.74509,21.43641 -36.08112,31.99092 -62.62693,37.2131 l 5.44577,59.90401 c 62.49786,-11.88764 100.79428,-43.49505 117.08517,-93.03282 10.19228,-33.67388 11.84867,-68.77044 -8.62253,-107.55495 -15.95997,-23.72582 -34.69995,-44.45773 -61.71931,-56.27346 -8.37853,-6.16766 -29.25832,-10.16726 -61.5953,-15.47925 z" />
      <path
         id="path13"
         style="fill:#2fbccd;stroke:none;stroke-width:3.53567;stroke-linejoin:round"
         d="m 235.32637,450.55427 -4.08435,61.26542 c -21.91585,-3.78352 -45.55766,-5.94475 -72.61095,-26.77516 -22.61638,-13.70328 -39.13543,-37.80514 -48.55856,-59.90411 -5.88482,-13.46328 -9.07009,-26.92655 -11.34548,-40.38983 l 56.27351,-11.79929 c 20.05151,58.81405 48.20579,77.92462 80.32583,77.60297 z" />
      <circle
         id="path14"
         style="fill:#2fbccd;stroke:none;stroke-width:3.59701;stroke-linejoin:round"
         cx="243.38974"
         cy="159.55125"
         r="45.245777" />
      <circle
         id="circle15"
         style="fill:#a0c0e8;stroke:none;stroke-width:3.59701;stroke-linejoin:round"
         cx="245.31508"
         cy="376.79935"
         r="45.245777" />
    </g>
  </g>
</svg>
