<?xml version="1.0" encoding="UTF-8" standalone="no"?>
<!-- Created with Inkscape (http://www.inkscape.org/) -->

<svg
   width="512mm"
   height="512mm"
   viewBox="0 0 512 512"
   version="1.1"
   id="svg1"
   xml:space="preserve"
   inkscape:version="1.4.2 (ebf0e940, 2025-05-08)"
   sodipodi:docname="Servease-Icono.svg"
   inkscape:export-filename="Servease-Icono-Modo-Oscuro.svg"
   inkscape:export-xdpi="96"
   inkscape:export-ydpi="96"
   xmlns:inkscape="http://www.inkscape.org/namespaces/inkscape"
   xmlns:sodipodi="http://sodipodi.sourceforge.net/DTD/sodipodi-0.dtd"
   xmlns="http://www.w3.org/2000/svg"
   xmlns:svg="http://www.w3.org/2000/svg"><sodipodi:namedview
     id="namedview1"
     pagecolor="#505050"
     bordercolor="#eeeeee"
     borderopacity="1"
     inkscape:showpageshadow="0"
     inkscape:pageopacity="0"
     inkscape:pagecheckerboard="0"
     inkscape:deskcolor="#505050"
     inkscape:document-units="mm"
     inkscape:zoom="0.26811289"
     inkscape:cx="1117.0668"
     inkscape:cy="999.57894"
     inkscape:window-width="1680"
     inkscape:window-height="899"
     inkscape:window-x="0"
     inkscape:window-y="30"
     inkscape:window-maximized="0"
     inkscape:current-layer="layer1"
     showguides="false" /><defs
     id="defs1" /><g
     inkscape:label="Layer 1"
     inkscape:groupmode="layer"
     id="layer1"><g
       id="g1"
       transform="translate(-26.938883,0.0901565)"><path
         style="fill:#3a5b87;fill-opacity:1;stroke:none;stroke-width:3.53567;stroke-linejoin:round;stroke-dasharray:none;stroke-opacity:1"
         d="M 429.80451,136.55559 C 412.03702,68.26763 370.10992,24.688315 299.1048,10.847917 l -5.89961,58.542571 c 38.63783,9.193068 67.07908,34.409312 80.32584,83.502592 z"
         id="path9"
         sodipodi:nodetypes="ccccc" /><path
         style="fill:#1b244c;fill-opacity:1;stroke:none;stroke-width:3.53567;stroke-linejoin:round;stroke-dasharray:none;stroke-opacity:1"
         d="M 262.79933,11.301713 C 203.98808,28.0761 151.66051,54.137945 137.09161,134.2865 c -4.60768,39.33175 3.72884,77.32262 55.81966,123.8924 31.04275,18.10941 68.20045,28.06338 99.13503,29.29279 l -1.3428,-60.64976 c -45.18011,-1.8599 -76.64659,-17.02284 -89.16962,-50.33033 -10.12118,-31.09664 -2.54433,-51.13206 6.35349,-70.34185 16.91425,-22.720849 38.33586,-31.018306 61.26546,-34.490148 z"
         id="path11"
         sodipodi:nodetypes="ccccccccc" /><path
         style="fill:#203c6e;fill-opacity:1;stroke:none;stroke-width:3.53567;stroke-linejoin:round;stroke-dasharray:none;stroke-opacity:1"
         d="m 290.56012,227.29658 1.41098,60.13409 c 27.11162,2.40324 52.39113,13.46368 68.39921,40.63625 14.13419,26.15324 11.11834,50.37016 2.26912,73.9725 -13.74509,21.43641 -36.08112,31.99092 -62.62693,37.2131 l 5.44577,59.90401 c 62.49786,-11.88764 100.79428,-43.49505 117.08517,-93.03282 10.19228,-33.67388 11.84867,-68.77044 -8.62253,-107.55495 -15.95997,-23.72582 -34.69995,-44.45773 -61.71931,-56.27346 -8.37853,-6.16766 -29.25832,-10.16726 -61.5953,-15.47925 z"
         id="path12"
         sodipodi:nodetypes="ccccccccccc" /><path
         style="fill:#2fbccd;fill-opacity:1;stroke:none;stroke-width:3.53567;stroke-linejoin:round;stroke-dasharray:none;stroke-opacity:1"
         d="m 273.69095,439.70635 -4.08435,61.26542 c -21.91585,-3.78352 -45.55766,-5.94475 -72.61095,-26.77516 -22.61638,-13.70328 -39.13543,-37.80514 -48.55856,-59.90411 -5.88482,-13.46328 -9.07009,-26.92655 -11.34548,-40.38983 l 56.27351,-11.79929 c 20.05151,58.81405 48.20579,77.92462 80.32583,77.60297 z"
         id="path13"
         sodipodi:nodetypes="ccccccc" /><circle
         style="fill:#2fbccd;fill-opacity:1;stroke:none;stroke-width:3.59701;stroke-linejoin:round;stroke-dasharray:none;stroke-opacity:1"
         id="path14"
         cx="281.75433"
         cy="148.70334"
         r="45.245777" /><circle
         style="fill:#203c6e;fill-opacity:1;stroke:none;stroke-width:3.59701;stroke-linejoin:round;stroke-dasharray:none;stroke-opacity:1"
         id="circle15"
         cx="283.67966"
         cy="365.95142"
         r="45.245777" /></g></g></svg>
