<?xml version="1.0" encoding="UTF-8" standalone="no"?>
<!-- Created with Inkscape (http://www.inkscape.org/) -->

<svg
   width="512mm"
   height="512mm"
   viewBox="0 0 512 512"
   version="1.1"
   id="svg1"
   xml:space="preserve"
   xmlns="http://www.w3.org/2000/svg"
   xmlns:svg="http://www.w3.org/2000/svg"><defs
     id="defs1" /><g
     id="layer1"><g
       id="g1"
       transform="translate(5.6041368,6.7737676)"><path
         style="fill:#3a5b87;fill-opacity:1;stroke:none;stroke-width:3.53567;stroke-linejoin:round;stroke-dasharray:none;stroke-opacity:1"
         d="M 397.26149,129.87198 C 379.494,61.584018 337.5669,18.004703 266.56178,4.1643047 l -5.89961,58.5425713 c 38.63783,9.193068 67.07908,34.409316 80.32584,83.502594 z"
         id="path9" /><path
         style="fill:#1b244c;fill-opacity:1;stroke:none;stroke-width:3.53567;stroke-linejoin:round;stroke-dasharray:none;stroke-opacity:1"
         d="M 230.25631,4.6181007 C 171.44506,21.392488 119.11749,47.454333 104.54859,127.60289 c -4.607676,39.33175 3.72884,77.32262 55.81966,123.8924 31.04275,18.10941 68.20045,28.06338 99.13503,29.29279 l -1.3428,-60.64976 c -45.18011,-1.8599 -76.64659,-17.02284 -89.16962,-50.33033 -10.12118,-31.09664 -2.54433,-51.13206 6.35349,-70.341848 16.91425,-22.720853 38.33586,-31.01831 61.26546,-34.490152 z"
         id="path11" /><path
         style="fill:#203c6e;fill-opacity:1;stroke:none;stroke-width:3.53567;stroke-linejoin:round;stroke-dasharray:none;stroke-opacity:1"
         d="m 258.0171,220.61297 1.41098,60.13409 c 27.11162,2.40324 52.39113,13.46368 68.39921,40.63625 14.13419,26.15324 11.11834,50.37016 2.26912,73.9725 -13.74509,21.43641 -36.08112,31.99092 -62.62693,37.2131 l 5.44577,59.90401 c 62.49786,-11.88764 100.79428,-43.49505 117.08517,-93.03282 10.19228,-33.67388 11.84867,-68.77044 -8.62253,-107.55495 -15.95997,-23.72582 -34.69995,-44.45773 -61.71931,-56.27346 -8.37853,-6.16766 -29.25832,-10.16726 -61.5953,-15.47925 z"
         id="path12" /><path
         style="fill:#2fbccd;fill-opacity:1;stroke:none;stroke-width:3.53567;stroke-linejoin:round;stroke-dasharray:none;stroke-opacity:1"
         d="m 241.14793,433.02274 -4.08435,61.26542 c -21.91585,-3.78352 -45.55766,-5.94475 -72.61095,-26.77516 -22.61638,-13.70328 -39.13543,-37.80514 -48.55856,-59.90411 -5.88482,-13.46328 -9.07009,-26.92655 -11.34548,-40.38983 l 56.27351,-11.79929 c 20.05151,58.81405 48.20579,77.92462 80.32583,77.60297 z"
         id="path13" /><circle
         style="fill:#2fbccd;fill-opacity:1;stroke:none;stroke-width:3.59701;stroke-linejoin:round;stroke-dasharray:none;stroke-opacity:1"
         id="path14"
         cx="249.2113"
         cy="142.01973"
         r="45.245777" /><circle
         style="fill:#203c6e;fill-opacity:1;stroke:none;stroke-width:3.59701;stroke-linejoin:round;stroke-dasharray:none;stroke-opacity:1"
         id="circle15"
         cx="251.13664"
         cy="359.26782"
         r="45.245777" /></g></g></svg>
